HIERARCHY
ROOT Hips
{
	OFFSET 0.000000 100.481300 0.000000
	CHANNELS 6 Xposition Yposition Zposition Xrotation Yrotation Zrotation
	JOINT Spine
	{
		OFFSET -0.279200 12.230698 -2.892100
		CHANNELS 3 Xrotation Yrotation Zrotation
		JOINT Spine1
		{
			OFFSET -0.325700 14.269203 -3.374200
			CHANNELS 3 Xrotation Yrotation Zrotation
			JOINT Spine2
			{
				OFFSET -0.372300 16.307602 -0.352600
				CHANNELS 3 Xrotation Yrotation Zrotation
				JOINT Neck
				{
					OFFSET -0.418800 17.814194 8.416900
					CHANNELS 3 Xrotation Yrotation Zrotation
					JOINT Head
					{
						OFFSET 0.000000 7.031097 3.806800
						CHANNELS 3 Xrotation Yrotation Zrotation
						JOINT HeadTop_End
						{
							OFFSET 0.000000 24.646606 12.978600
							CHANNELS 3 Xrotation Yrotation Zrotation
							End Site
							{
								OFFSET 0.000000 27.854965 0.000000
							}
						}
					}
				}
				JOINT LeftShoulder
				{
					OFFSET 16.952999 14.495407 -7.737500
					CHANNELS 3 Xrotation Yrotation Zrotation
					JOINT LeftArm
					{
						OFFSET 9.308998 -2.777710 0.208600
						CHANNELS 3 Xrotation Yrotation Zrotation
						JOINT LeftForeArm
						{
							OFFSET 29.972298 0.000000 0.000000
							CHANNELS 3 Xrotation Yrotation Zrotation
							JOINT LeftHand
							{
								OFFSET 26.026505 0.000000 0.000000
								CHANNELS 3 Xrotation Yrotation Zrotation
								JOINT LeftHandThumb1
								{
									OFFSET 12.240501 -7.147949 9.207150
									CHANNELS 3 Xrotation Yrotation Zrotation
									JOINT LeftHandThumb2
									{
										OFFSET 4.138618 -2.389435 2.389433
										CHANNELS 3 Xrotation Yrotation Zrotation
										JOINT LeftHandThumb3
										{
											OFFSET 2.726913 -1.574387 1.574386
											CHANNELS 3 Xrotation Yrotation Zrotation
											JOINT LeftHandThumb4
											{
												OFFSET 3.941010 -2.275345 2.275342
												CHANNELS 3 Xrotation Yrotation Zrotation
												End Site
												{
													OFFSET -0.005798 5.087799 0.009903
												}
											}
										}
									}
								}
								JOINT LeftHandIndex1
								{
									OFFSET 24.424698 -1.985611 5.953459
									CHANNELS 3 Xrotation Yrotation Zrotation
									JOINT LeftHandIndex2
									{
										OFFSET 6.426697 0.000000 0.000000
										CHANNELS 3 Xrotation Yrotation Zrotation
										JOINT LeftHandIndex3
										{
											OFFSET 5.337898 0.000000 0.000000
											CHANNELS 3 Xrotation Yrotation Zrotation
											JOINT LeftHandIndex4
											{
												OFFSET 4.409401 0.000000 0.000000
												CHANNELS 3 Xrotation Yrotation Zrotation
												End Site
												{
													OFFSET 0.000000 4.409363 0.014373
												}
											}
										}
									}
								}
								JOINT LeftHandMiddle1
								{
									OFFSET 23.810104 0.000000 0.000000
									CHANNELS 3 Xrotation Yrotation Zrotation
									JOINT LeftHandMiddle2
									{
										OFFSET 7.176498 0.000000 0.000000
										CHANNELS 3 Xrotation Yrotation Zrotation
										JOINT LeftHandMiddle3
										{
											OFFSET 6.774902 0.000000 0.000000
											CHANNELS 3 Xrotation Yrotation Zrotation
											JOINT LeftHandMiddle4
											{
												OFFSET 5.403328 0.000000 0.000000
												CHANNELS 3 Xrotation Yrotation Zrotation
												End Site
												{
													OFFSET -0.027702 5.403244 0.017414
												}
											}
										}
									}
								}
								JOINT LeftHandRing1
								{
									OFFSET 22.908401 -0.839279 -6.020567
									CHANNELS 3 Xrotation Yrotation Zrotation
									JOINT LeftHandRing2
									{
										OFFSET 6.337502 0.000000 0.000000
										CHANNELS 3 Xrotation Yrotation Zrotation
										JOINT LeftHandRing3
										{
											OFFSET 5.779297 0.000000 0.000000
											CHANNELS 3 Xrotation Yrotation Zrotation
											JOINT LeftHandRing4
											{
												OFFSET 4.965698 0.000000 0.000000
												CHANNELS 3 Xrotation Yrotation Zrotation
												End Site
												{
													OFFSET 0.000000 4.965668 0.016186
												}
											}
										}
									}
								}
								JOINT LeftHandPinky1
								{
									OFFSET 20.037003 -1.530319 -10.950146
									CHANNELS 3 Xrotation Yrotation Zrotation
									JOINT LeftHandPinky2
									{
										OFFSET 5.254700 0.000000 0.000000
										CHANNELS 3 Xrotation Yrotation Zrotation
										JOINT LeftHandPinky3
										{
											OFFSET 4.810204 0.000000 0.000000
											CHANNELS 3 Xrotation Yrotation Zrotation
											JOINT LeftHandPinky4
											{
												OFFSET 3.647202 0.000000 0.000000
												CHANNELS 3 Xrotation Yrotation Zrotation
												End Site
												{
													OFFSET 0.000000 3.647186 0.011889
												}
											}
										}
									}
								}
							}
						}
					}
				}
				JOINT RightShoulder
				{
					OFFSET -15.141001 14.495407 -7.737500
					CHANNELS 3 Xrotation Yrotation Zrotation
					JOINT RightArm
					{
						OFFSET -9.308998 -2.777710 0.208500
						CHANNELS 3 Xrotation Yrotation Zrotation
						JOINT RightForeArm
						{
							OFFSET -29.972300 0.000000 0.000000
							CHANNELS 3 Xrotation Yrotation Zrotation
							JOINT RightHand
							{
								OFFSET -26.026505 0.000000 0.000000
								CHANNELS 3 Xrotation Yrotation Zrotation
								JOINT RightHandThumb1
								{
									OFFSET -12.240601 -7.148026 9.207092
									CHANNELS 3 Xrotation Yrotation Zrotation
									JOINT RightHandThumb2
									{
										OFFSET -4.138618 -2.389435 2.389433
										CHANNELS 3 Xrotation Yrotation Zrotation
										JOINT RightHandThumb3
										{
											OFFSET -2.726974 -1.574417 1.574421
											CHANNELS 3 Xrotation Yrotation Zrotation
											JOINT RightHandThumb4
											{
												OFFSET -3.941010 -2.275345 2.275343
												CHANNELS 3 Xrotation Yrotation Zrotation
												End Site
												{
													OFFSET 0.005814 5.087799 0.009927
												}
											}
										}
									}
								}
								JOINT RightHandIndex1
								{
									OFFSET -24.424698 -1.985657 5.953444
									CHANNELS 3 Xrotation Yrotation Zrotation
									JOINT RightHandIndex2
									{
										OFFSET -6.426697 0.000000 0.000000
										CHANNELS 3 Xrotation Yrotation Zrotation
										JOINT RightHandIndex3
										{
											OFFSET -5.337898 0.000000 0.000000
											CHANNELS 3 Xrotation Yrotation Zrotation
											JOINT RightHandIndex4
											{
												OFFSET -4.409401 0.000000 0.000000
												CHANNELS 3 Xrotation Yrotation Zrotation
												End Site
												{
													OFFSET 0.000000 4.409363 0.014408
												}
											}
										}
									}
								}
								JOINT RightHandMiddle1
								{
									OFFSET -23.810097 0.000000 0.000000
									CHANNELS 3 Xrotation Yrotation Zrotation
									JOINT RightHandMiddle2
									{
										OFFSET -7.176498 0.000000 0.000000
										CHANNELS 3 Xrotation Yrotation Zrotation
										JOINT RightHandMiddle3
										{
											OFFSET -6.774902 0.000000 0.000000
											CHANNELS 3 Xrotation Yrotation Zrotation
											JOINT RightHandMiddle4
											{
												OFFSET -5.403328 0.000000 0.000000
												CHANNELS 3 Xrotation Yrotation Zrotation
												End Site
												{
													OFFSET 0.027702 5.403244 0.017457
												}
											}
										}
									}
								}
								JOINT RightHandRing1
								{
									OFFSET -22.908302 -0.839325 -6.020576
									CHANNELS 3 Xrotation Yrotation Zrotation
									JOINT RightHandRing2
									{
										OFFSET -6.337502 0.000000 0.000000
										CHANNELS 3 Xrotation Yrotation Zrotation
										JOINT RightHandRing3
										{
											OFFSET -5.779297 0.000000 0.000000
											CHANNELS 3 Xrotation Yrotation Zrotation
											JOINT RightHandRing4
											{
												OFFSET -4.965698 0.000000 0.000000
												CHANNELS 3 Xrotation Yrotation Zrotation
												End Site
												{
													OFFSET 0.000000 4.965668 0.016226
												}
											}
										}
									}
								}
								JOINT RightHandPinky1
								{
									OFFSET -20.037003 -1.530334 -10.950259
									CHANNELS 3 Xrotation Yrotation Zrotation
									JOINT RightHandPinky2
									{
										OFFSET -5.254700 0.000000 0.000000
										CHANNELS 3 Xrotation Yrotation Zrotation
										JOINT RightHandPinky3
										{
											OFFSET -4.810204 0.000000 0.000000
											CHANNELS 3 Xrotation Yrotation Zrotation
											JOINT RightHandPinky4
											{
												OFFSET -3.647202 0.000000 0.000000
												CHANNELS 3 Xrotation Yrotation Zrotation
												End Site
												{
													OFFSET 0.000000 3.647186 0.011917
												}
											}
										}
									}
								}
							}
						}
					}
				}
			}
		}
	}
	JOINT LeftUpLeg
	{
		OFFSET 15.427100 -6.655098 0.678600
		CHANNELS 3 Xrotation Yrotation Zrotation
		JOINT LeftLeg
		{
			OFFSET 4.081073 -39.591068 13.024000
			CHANNELS 3 Xrotation Yrotation Zrotation
			JOINT LeftFoot
			{
				OFFSET -4.081074 -37.707932 -15.979700
				CHANNELS 3 Xrotation Yrotation Zrotation
				JOINT LeftToeBase
				{
					OFFSET 5.346399 -15.068900 20.645000
					CHANNELS 3 Xrotation Yrotation Zrotation
					JOINT LeftToe_End
					{
						OFFSET 2.754700 0.931300 11.300900
						CHANNELS 3 Xrotation Yrotation Zrotation
						End Site
						{
							OFFSET 0.000000 11.669021 0.000000
						}
					}
				}
			}
		}
	}
	JOINT RightUpLeg
	{
		OFFSET -15.569500 -6.655098 0.678600
		CHANNELS 3 Xrotation Yrotation Zrotation
		JOINT RightLeg
		{
			OFFSET -4.081825 -39.591045 13.023800
			CHANNELS 3 Xrotation Yrotation Zrotation
			JOINT RightFoot
			{
				OFFSET 4.081824 -37.707954 -15.979600
				CHANNELS 3 Xrotation Yrotation Zrotation
				JOINT RightToeBase
				{
					OFFSET -5.346400 -15.068900 20.645000
					CHANNELS 3 Xrotation Yrotation Zrotation
					JOINT RightToe_End
					{
						OFFSET -2.754700 0.931300 11.300900
						CHANNELS 3 Xrotation Yrotation Zrotation
						End Site
						{
							OFFSET 0.000000 11.669021 0.000000
						}
					}
				}
			}
		}
	}
}
MOTION
Frames: 4
Frame Time: 0.033333
-0.721249 45.050323 17.086510 -10.000262 -7.704857 -0.851130 22.632168 -0.857664 -3.147366 5.685381 -1.193611 -0.305257 5.657358 -1.280657 -0.402497 1.785815 -1.328827 1.060843 -9.402034 -18.705591 9.743255 0.000001 -0.000001 -0.000000 2.308864 -12.853904 -5.590597 -19.798849 18.186215 -65.800151 0.001805 -88.146597 0.001847 -11.472170 -5.937052 -4.670991 -5.107264 -14.916090 8.804684 15.120231 6.007904 -7.645190 -21.665295 -32.559502 8.258683 -0.000002 -0.000002 0.000000 -2.950366 -6.714434 -14.117806 0.153161 1.332189 -13.116548 0.000434 0.071751 -0.700101 -0.000000 0.000000 -0.000004 0.607925 4.842673 -22.056679 0.206637 1.543707 -15.246944 0.019225 0.474927 -4.639575 -0.000000 0.000001 -0.000002 4.464639 13.617980 -23.262771 0.554707 2.490205 -25.111856 0.000018 -0.011698 0.114190 -0.000001 -0.000003 0.000001 7.889441 20.115062 -29.777606 0.427698 2.199235 -22.008473 0.159229 1.357974 -13.375190 0.000001 -0.000000 0.000001 1.442148 12.123292 14.592298 -28.931076 -1.621561 47.377696 0.000421 83.606317 -0.000396 -94.168016 11.562500 21.257507 -5.008460 0.446407 2.999286 14.120735 -4.148206 0.555702 -2.003052 -15.940195 -20.322611 0.000001 -0.000000 0.000001 1.512395 12.287994 42.066333 2.278337 -4.004962 59.256167 0.929229 -2.793339 36.794369 -0.000000 0.000001 0.000001 -0.450056 -4.284909 53.850772 2.082939 -3.882353 56.415368 0.740767 -2.522093 32.731807 -0.000001 0.000001 -0.000001 6.674992 -8.772481 60.068993 1.812997 -3.689336 52.328811 0.852212 -2.687391 35.183520 -0.000002 0.000000 0.000001 14.868444 -30.960513 56.266040 2.090344 -3.887278 56.524668 1.320406 -3.250735 44.203905 0.000003 0.000001 -0.000001 -86.594204 -1.979938 13.729293 85.261750 -9.088160 -5.260053 11.145824 -0.079421 2.361301 0.346491 -0.000001 -0.000001 0.000000 0.000000 -0.000000 -84.504712 4.295146 -12.957403 90.962397 -3.033307 4.615172 4.271634 -3.033479 -2.163323 -0.110471 -0.000003 -0.000001 0.000000 0.000000 0.000000 
-0.721705 45.035706 17.053583 -10.026304 -7.594477 -0.814126 22.727036 -0.834423 -3.089563 5.813132 -1.203344 -0.243388 5.784729 -1.290165 -0.342042 1.684296 -1.270003 0.981537 -9.905809 -18.015102 9.297370 0.000002 -0.000001 0.000000 2.282571 -12.090045 -6.252423 -19.923228 17.469826 -65.916708 0.006501 -87.848910 0.006515 -10.938639 -5.738811 -4.425142 -5.197801 -15.371030 8.661229 14.982192 5.568027 -7.746262 -21.828422 -32.994503 8.018920 0.000000 0.000000 -0.000001 -3.048009 -7.098024 -14.181101 0.153130 1.331976 -13.114548 0.000445 0.071833 -0.701009 0.000000 0.000000 0.000001 0.607983 4.842765 -22.060077 0.206682 1.543894 -15.248792 0.019249 0.475112 -4.641421 0.000001 -0.000001 0.000002 4.584756 13.888765 -23.262364 0.554662 2.490156 -25.111194 0.000012 -0.011410 0.111358 0.000001 -0.000000 0.000004 8.116447 20.486509 -29.811573 0.427714 2.199179 -22.008131 0.159244 1.358054 -13.375955 -0.000002 0.000002 0.000001 1.410828 12.234284 14.880139 -28.283156 -1.387841 48.025615 0.000456 83.539470 -0.000469 -93.095164 11.490955 19.692199 -5.003375 0.436278 3.006148 14.120821 -4.149625 0.556769 -2.008373 -15.960250 -20.316790 0.000002 0.000000 -0.000000 1.517557 12.289943 42.083507 2.279480 -4.005643 59.272416 0.930021 -2.794387 36.810782 0.000003 0.000001 -0.000000 -0.448763 -4.286952 53.867339 2.084051 -3.883091 56.431672 0.741475 -2.523197 32.747943 -0.000003 -0.000002 -0.000002 6.675348 -8.771103 60.085222 1.814057 -3.690156 52.345115 0.852963 -2.688445 35.199496 0.000004 0.000000 0.000002 14.874801 -30.967699 56.283993 2.091422 -3.887987 56.540688 1.321321 -3.251671 44.220079 0.000000 0.000002 -0.000001 -86.618950 -1.899495 13.654630 85.195859 -9.120342 -5.283717 11.251467 -0.081705 2.413028 0.312736 0.000001 0.000000 0.000000 -0.000000 0.000000 -84.501926 4.374553 -12.996055 90.986692 -3.031525 4.600884 4.282327 -3.110172 -2.119451 -0.099605 -0.000005 0.000001 0.000000 -0.000000 0.000000 
-0.740695 45.008011 17.026173 -10.073193 -7.454943 -0.764379 22.844551 -0.807589 -3.045667 5.971528 -1.195037 -0.198573 5.943157 -1.282961 -0.295837 1.532600 -1.244064 0.974898 -10.987269 -17.680512 9.097978 -0.000001 0.000001 -0.000001 2.256013 -11.352839 -6.983302 -20.279074 16.548133 -65.899844 0.000053 -87.562492 0.000077 -10.469617 -4.932487 -3.664007 -5.275366 -15.757281 8.540315 14.863661 5.196364 -7.835596 -21.971561 -33.362578 7.811650 0.000001 0.000001 0.000002 -3.132031 -7.427474 -14.235964 0.153079 1.331857 -13.113194 0.000454 0.071893 -0.701604 0.000000 0.000000 0.000001 0.607867 4.842482 -22.061431 0.206707 1.543964 -15.249569 0.019271 0.475189 -4.642196 -0.000001 -0.000001 0.000003 4.687932 14.121327 -23.262009 0.554623 2.490074 -25.110362 0.000025 -0.011295 0.110224 0.000001 0.000001 0.000005 8.311651 20.805562 -29.841616 0.427657 2.199135 -22.007559 0.159270 1.358114 -13.376569 0.000003 -0.000003 -0.000000 1.382632 12.242820 15.210819 -27.881343 -0.894174 48.763651 -0.000067 83.181664 0.000095 -92.476615 11.567047 17.947357 -5.001046 0.432097 3.005483 14.121050 -4.151099 0.557850 -2.013634 -15.959413 -20.314992 -0.000005 -0.000000 0.000001 1.518841 12.289403 42.084334 2.279368 -4.005562 59.270667 0.929970 -2.794317 36.809556 -0.000002 -0.000003 -0.000003 -0.448364 -4.287169 53.866594 2.083924 -3.883016 56.429841 0.741405 -2.523079 32.746072 -0.000003 -0.000001 0.000001 6.674300 -8.770674 60.083330 1.813951 -3.690039 52.343172 0.852824 -2.688295 35.197119 0.000003 -0.000000 0.000001 14.872283 -30.968262 56.280892 2.091249 -3.887878 56.538271 1.321205 -3.251550 44.218228 -0.000001 -0.000000 0.000000 -86.639679 -1.832605 13.564310 85.150022 -9.137899 -5.296185 11.349158 -0.086643 2.422243 0.267422 -0.000001 0.000000 0.000000 -0.000000 -0.000000 -84.483354 4.485202 -13.064468 91.048040 -3.014019 4.615826 4.267220 -3.194822 -2.088118 -0.089456 0.000000 -0.000001 0.000000 -0.000001 -0.000000 
-0.774688 44.966270 17.009838 -10.159678 -7.305915 -0.703797 23.023183 -0.781657 -3.038869 6.201207 -1.177380 -0.174562 6.173127 -1.273892 -0.267673 1.357578 -1.270881 1.056848 -12.606925 -18.037479 9.252444 -0.000000 -0.000002 0.000001 2.234315 -10.864474 -7.561009 -20.615644 15.808422 -65.806564 0.001754 -87.504217 0.001759 -10.894798 -4.161731 -3.085627 -5.338174 -16.067569 8.443706 14.767074 4.899095 -7.909639 -22.089163 -33.657154 7.641641 0.000003 0.000001 0.000001 -3.200179 -7.695025 -14.280717 0.153046 1.331821 -13.112759 0.000457 0.071958 -0.702264 0.000001 0.000000 -0.000001 0.607476 4.841506 -22.061952 0.206718 1.544003 -15.250042 0.019247 0.475245 -4.642675 0.000000 0.000001 -0.000001 4.771782 14.310171 -23.262125 0.554586 2.489991 -25.109269 0.000014 -0.011252 0.109812 0.000001 -0.000001 -0.000000 8.470373 21.064601 -29.866238 0.427629 2.199048 -22.006612 0.159284 1.358190 -13.377313 -0.000001 -0.000000 0.000001 1.367969 12.204478 15.420028 -27.739775 -0.229408 49.446308 0.000377 82.881504 -0.000376 -92.036990 11.369966 15.639170 -4.999908 0.430209 3.001328 14.121441 -4.152968 0.558993 -2.016989 -15.957788 -20.312253 0.000000 0.000000 -0.000001 1.518034 12.287778 42.085379 2.279210 -4.005489 59.268468 0.929892 -2.794207 36.808002 0.000000 -0.000001 -0.000003 -0.448116 -4.287282 53.865686 2.083723 -3.882893 56.426850 0.741304 -2.522899 32.743684 0.000001 -0.000004 0.000001 6.673527 -8.770443 60.081015 1.813749 -3.689931 52.340443 0.852718 -2.688119 35.194162 0.000002 0.000000 -0.000000 14.869716 -30.965954 56.277470 2.091060 -3.887719 56.535112 1.321042 -3.251355 44.215134 -0.000004 0.000002 -0.000004 -86.639126 -1.738127 13.497961 85.135432 -9.169917 -5.303175 11.426868 -0.093317 2.436622 0.244573 0.000001 -0.000001 0.000000 -0.000000 0.000000 -84.441827 4.616401 -13.123431 91.147447 -2.989591 4.636129 4.228022 -3.301314 -2.062509 -0.076706 0.000010 0.000001 -0.000000 -0.000000 0.000000 
